<svg width="51" height="50" viewBox="0 0 51 50" fill="none" xmlns="http://www.w3.org/2000/svg">
<g clip-path="url(#clip0_10_45)">
<path fill-rule="evenodd" clip-rule="evenodd" d="M33.8333 29.1667C36.596 29.1667 39.2455 30.2641 41.199 32.2176C43.1525 34.1711 44.25 36.8207 44.25 39.5833V43.75C44.25 44.3025 44.0305 44.8324 43.6398 45.2231C43.2491 45.6138 42.7192 45.8333 42.1667 45.8333C41.6141 45.8333 41.0842 45.6138 40.6935 45.2231C40.3028 44.8324 40.0833 44.3025 40.0833 43.75V39.5833C40.0833 37.9257 39.4249 36.336 38.2528 35.1639C37.0807 33.9918 35.4909 33.3333 33.8333 33.3333H17.1667C15.5091 33.3333 13.9194 33.9918 12.7473 35.1639C11.5751 36.336 10.9167 37.9257 10.9167 39.5833V43.75C10.9167 44.3025 10.6972 44.8324 10.3065 45.2231C9.91577 45.6138 9.38587 45.8333 8.83333 45.8333C8.2808 45.8333 7.75089 45.6138 7.36019 45.2231C6.96949 44.8324 6.75 44.3025 6.75 43.75V39.5833C6.75 36.8207 7.84747 34.1711 9.80097 32.2176C11.7545 30.2641 14.404 29.1667 17.1667 29.1667H33.8333ZM42.1667 16.6667C42.7192 16.6667 43.2491 16.8862 43.6398 17.2769C44.0305 17.6676 44.25 18.1975 44.25 18.75V20.8333H46.3333C46.8859 20.8333 47.4158 21.0528 47.8065 21.4435C48.1972 21.8342 48.4167 22.3641 48.4167 22.9167C48.4167 23.4692 48.1972 23.9991 47.8065 24.3898C47.4158 24.7805 46.8859 25 46.3333 25H44.25V27.0833C44.25 27.6359 44.0305 28.1658 43.6398 28.5565C43.2491 28.9472 42.7192 29.1667 42.1667 29.1667C41.6141 29.1667 41.0842 28.9472 40.6935 28.5565C40.3028 28.1658 40.0833 27.6359 40.0833 27.0833V25H38C37.4475 25 36.9176 24.7805 36.5269 24.3898C36.1362 23.9991 35.9167 23.4692 35.9167 22.9167C35.9167 22.3641 36.1362 21.8342 36.5269 21.4435C36.9176 21.0528 37.4475 20.8333 38 20.8333H40.0833V18.75C40.0833 18.1975 40.3028 17.6676 40.6935 17.2769C41.0842 16.8862 41.6141 16.6667 42.1667 16.6667ZM25.5 4.16667C28.2627 4.16667 30.9122 5.26414 32.8657 7.21764C34.8192 9.17115 35.9167 11.8207 35.9167 14.5833C35.9167 17.346 34.8192 19.9955 32.8657 21.949C30.9122 23.9025 28.2627 25 25.5 25C22.7373 25 20.0878 23.9025 18.1343 21.949C16.1808 19.9955 15.0833 17.346 15.0833 14.5833C15.0833 11.8207 16.1808 9.17115 18.1343 7.21764C20.0878 5.26414 22.7373 4.16667 25.5 4.16667ZM25.5 8.33334C24.6792 8.33334 23.8665 8.495 23.1082 8.80909C22.3499 9.12318 21.6609 9.58356 21.0806 10.1639C20.5002 10.7443 20.0398 11.4333 19.7258 12.1916C19.4117 12.9499 19.25 13.7626 19.25 14.5833C19.25 15.4041 19.4117 16.2168 19.7258 16.9751C20.0398 17.7334 20.5002 18.4224 21.0806 19.0028C21.6609 19.5831 22.3499 20.0435 23.1082 20.3576C23.8665 20.6717 24.6792 20.8333 25.5 20.8333C27.1576 20.8333 28.7473 20.1749 29.9194 19.0028C31.0915 17.8307 31.75 16.2409 31.75 14.5833C31.75 12.9257 31.0915 11.336 29.9194 10.1639C28.7473 8.99182 27.1576 8.33334 25.5 8.33334Z" fill="white"/>
</g>
<defs>
<clipPath id="clip0_10_45">
<rect width="50" height="50" fill="white" transform="translate(0.5)"/>
</clipPath>
</defs>
</svg>
