<svg width="51" height="50" viewBox="0 0 51 50" fill="none" xmlns="http://www.w3.org/2000/svg">
<path d="M6.75 10.9375C6.3356 10.9375 5.93817 11.1021 5.64515 11.3952C5.35212 11.6882 5.1875 12.0856 5.1875 12.5C5.1875 12.9144 5.35212 13.3118 5.64515 13.6049C5.93817 13.8979 6.3356 14.0625 6.75 14.0625H10.2187L14.3187 30.4688C14.6672 31.8594 15.9125 32.8125 17.3453 32.8125H36.8297C38.2406 32.8125 39.4391 31.875 39.8094 30.5156L43.8594 15.625H40.5875L36.8281 29.6875H17.3438L13.2453 13.2813C13.076 12.6082 12.6857 12.0114 12.137 11.5864C11.5883 11.1615 10.9128 10.933 10.2187 10.9375H6.75ZM34.875 32.8125C32.3047 32.8125 30.1875 34.9297 30.1875 37.5C30.1875 40.0703 32.3047 42.1875 34.875 42.1875C37.4453 42.1875 39.5625 40.0703 39.5625 37.5C39.5625 34.9297 37.4453 32.8125 34.875 32.8125ZM20.8125 32.8125C18.2422 32.8125 16.125 34.9297 16.125 37.5C16.125 40.0703 18.2422 42.1875 20.8125 42.1875C23.3828 42.1875 25.5 40.0703 25.5 37.5C25.5 34.9297 23.3828 32.8125 20.8125 32.8125ZM25.5 10.9375V15.625H20.8125V18.75H25.5V23.4375H28.625V18.75H33.3125V15.625H28.625V10.9375H25.5ZM20.8125 35.9375C21.6938 35.9375 22.375 36.6188 22.375 37.5C22.375 38.3813 21.6938 39.0625 20.8125 39.0625C19.9312 39.0625 19.25 38.3813 19.25 37.5C19.25 36.6188 19.9312 35.9375 20.8125 35.9375ZM34.875 35.9375C35.7563 35.9375 36.4375 36.6188 36.4375 37.5C36.4375 38.3813 35.7563 39.0625 34.875 39.0625C33.9937 39.0625 33.3125 38.3813 33.3125 37.5C33.3125 36.6188 33.9937 35.9375 34.875 35.9375Z" fill="white"/>
</svg>
