<svg width="100" height="100" viewBox="0 0 100 100" fill="none" xmlns="http://www.w3.org/2000/svg">
<path d="M58.3333 20.8333C58.3333 18.6232 57.4554 16.5036 55.8926 14.9408C54.3298 13.378 52.2101 12.5 50 12.5C47.7899 12.5 45.6702 13.378 44.1074 14.9408C42.5446 16.5036 41.6667 18.6232 41.6667 20.8333M80.25 40.4L86.0208 77.9C86.2034 79.0869 86.1272 80.2992 85.7976 81.4539C85.468 82.6086 84.8928 83.6784 84.1113 84.5902C83.3298 85.5019 82.3604 86.2339 81.2697 86.7361C80.1789 87.2384 78.9925 87.4989 77.7917 87.5H22.2083C21.0068 87.5001 19.8194 87.2405 18.7277 86.7387C17.6359 86.237 16.6655 85.5052 15.8831 84.5933C15.1007 83.6815 14.5247 82.6112 14.1946 81.4559C13.8645 80.3006 13.7882 79.0876 13.9708 77.9L19.7417 40.4C20.0444 38.4316 21.042 36.6367 22.5539 35.3404C24.0657 34.0441 25.9918 33.3321 27.9833 33.3333H72.0167C74.0075 33.3331 75.9326 34.0456 77.4436 35.3418C78.9545 36.638 79.9516 38.4323 80.2542 40.4H80.25Z" stroke="white" stroke-width="3" stroke-linecap="round" stroke-linejoin="round"/>
</svg>
