<svg width="100" height="100" viewBox="0 0 100 100" fill="none" xmlns="http://www.w3.org/2000/svg">
<path d="M10.425 87.9812C10.428 88.1946 10.473 88.4054 10.5574 88.6014C10.6419 88.7974 10.7641 88.9749 10.9171 89.1236C11.0701 89.2724 11.251 89.3896 11.4493 89.4684C11.6476 89.5473 11.8595 89.5864 12.0729 89.5833H87.9208C88.1344 89.5866 88.3465 89.5478 88.5451 89.4691C88.7436 89.3903 88.9247 89.2732 89.078 89.1244C89.2312 88.9756 89.3536 88.798 89.4382 88.6019C89.5228 88.4057 89.5678 88.1948 89.5708 87.9812V86.0687C89.6083 85.4917 89.6854 82.6167 87.7896 79.4354C86.5937 77.4292 84.8583 75.6979 82.6312 74.2854C79.9375 72.5771 76.5104 71.3417 72.3646 70.5979C70.2601 70.3018 68.1725 69.8956 66.1104 69.3813C60.6271 67.9813 60.1479 66.7417 60.1437 66.7292C60.1121 66.6067 60.0659 66.4886 60.0062 66.3771C59.9604 66.1479 59.85 65.2771 60.0625 62.9458C60.6 57.0229 63.7771 53.5229 66.3292 50.7104C67.1333 49.825 67.8937 48.9854 68.4792 48.1646C71.0062 44.6229 71.2396 40.5917 71.25 40.3417C71.2595 39.8987 71.1983 39.457 71.0687 39.0333C70.8187 38.2625 70.3542 37.7833 70.0125 37.4292C69.9316 37.3481 69.8531 37.2647 69.7771 37.1792C69.7521 37.15 69.6854 37.0708 69.7458 36.6729C69.9501 35.391 70.0913 34.0999 70.1687 32.8042C70.2854 30.7167 70.375 27.5958 69.8354 24.5562C69.7562 23.9757 69.6364 23.4014 69.4771 22.8375C68.9083 20.7458 67.9958 18.9583 66.7271 17.4833C66.5083 17.2437 61.2 11.65 45.7896 10.5042C43.6583 10.3458 41.5521 10.4312 39.4771 10.5375C38.8634 10.5511 38.2527 10.6265 37.6542 10.7625C36.0625 11.1729 35.6375 12.1812 35.5271 12.7458C35.3417 13.6833 35.6667 14.4083 35.8812 14.8917C35.9125 14.9604 35.9521 15.0458 35.8833 15.2708C35.5271 15.825 34.9625 16.325 34.3896 16.7979C34.2229 16.9375 30.3604 20.2708 30.1479 24.6229C29.575 27.9333 29.6167 33.0896 30.2937 36.6542C30.3354 36.8521 30.3917 37.1437 30.2979 37.3417C29.5687 37.9937 28.7437 38.7333 28.7458 40.4208C28.7542 40.5917 28.9896 44.6208 31.5167 48.1646C32.1 48.9854 32.8604 49.8229 33.6625 50.7083L33.6667 50.7104C36.2187 53.5229 39.3958 57.0229 39.9333 62.9437C40.1437 65.2771 40.0333 66.1458 39.9896 66.3771C39.9291 66.4884 39.8822 66.6066 39.85 66.7292C39.8479 66.7417 39.3708 67.9771 33.9125 69.375C30.7625 70.1812 27.6625 70.5937 27.5687 70.6042C23.5396 71.2854 20.1333 72.4917 17.4437 74.1896C15.225 75.5917 13.4854 77.3292 12.2771 79.35C10.3437 82.5792 10.3958 85.5208 10.4229 86.0583V87.9812H10.425Z" stroke="white" stroke-width="4" stroke-linejoin="round"/>
</svg>
