<svg width="100" height="100" viewBox="0 0 100 100" fill="none" xmlns="http://www.w3.org/2000/svg">
<path d="M36.7188 84.375C36.7188 85.4566 36.398 86.5139 35.7971 87.4133C35.1962 88.3126 34.3421 89.0135 33.3428 89.4275C32.3435 89.8414 31.2439 89.9497 30.1831 89.7387C29.1223 89.5277 28.1478 89.0068 27.383 88.242C26.6182 87.4772 26.0973 86.5027 25.8863 85.4419C25.6753 84.3811 25.7836 83.2815 26.1975 82.2822C26.6115 81.2829 27.3124 80.4288 28.2117 79.8279C29.1111 79.227 30.1684 78.9062 31.25 78.9062C32.7004 78.9062 34.0914 79.4824 35.117 80.508C36.1426 81.5336 36.7188 82.9246 36.7188 84.375ZM71.875 78.9062C70.7934 78.9062 69.7361 79.227 68.8367 79.8279C67.9374 80.4288 67.2365 81.2829 66.8225 82.2822C66.4086 83.2815 66.3003 84.3811 66.5113 85.4419C66.7224 86.5027 67.2432 87.4772 68.008 88.242C68.7728 89.0068 69.7473 89.5277 70.8081 89.7387C71.8689 89.9497 72.9685 89.8414 73.9678 89.4275C74.9671 89.0135 75.8212 88.3126 76.4221 87.4133C77.023 86.5139 77.3438 85.4566 77.3438 84.375C77.3438 82.9246 76.7676 81.5336 75.742 80.508C74.7164 79.4824 73.3254 78.9062 71.875 78.9062ZM88.8672 28.75L78.5547 64.8438C78.0326 66.639 76.9442 68.2175 75.4518 69.3438C73.9595 70.4701 72.1431 71.0839 70.2734 71.0938H32.8516C30.9819 71.0839 29.1655 70.4701 27.6732 69.3438C26.1808 68.2175 25.0924 66.639 24.5703 64.8438L14.2578 28.8281V28.7109L10.4297 15.4297C10.3934 15.261 10.2994 15.1102 10.164 15.0032C10.0285 14.8963 9.86004 14.8399 9.6875 14.8438H3.125C2.5034 14.8438 1.90726 14.5968 1.46772 14.1573C1.02818 13.7177 0.78125 13.1216 0.78125 12.5C0.78125 11.8784 1.02818 11.2823 1.46772 10.8427C1.90726 10.4032 2.5034 10.1563 3.125 10.1562H9.6875C10.8792 10.1605 12.0374 10.5511 12.9883 11.2695C13.9391 11.9879 14.6313 12.9954 14.9609 14.1406L18.2813 25.7812H86.6016C86.9654 25.7812 87.3243 25.866 87.6497 26.0287C87.9752 26.1914 88.2583 26.4277 88.4766 26.7188C88.6927 27.0049 88.8404 27.3368 88.9081 27.6889C88.9758 28.0411 88.9618 28.4041 88.8672 28.75ZM83.5156 30.4688H19.6094L29.1016 63.5547C29.3311 64.3733 29.8215 65.0948 30.4983 65.6094C31.1751 66.124 32.0013 66.4038 32.8516 66.4062H70.2734C71.1237 66.4038 71.9499 66.124 72.6267 65.6094C73.3035 65.0948 73.7939 64.3733 74.0234 63.5547L83.5156 30.4688Z" fill="white"/>
</svg>
