<svg width="100" height="100" viewBox="0 0 100 100" fill="none" xmlns="http://www.w3.org/2000/svg">
<path d="M35.5556 5.53513C27.6241 5.53513 23.6583 13.1852 23.6583 28.4853V34.5491C23.6583 41.8154 24.7073 47.521 26.8054 51.6658C28.9034 55.7595 31.9992 57.8063 36.0929 57.8063C41.7217 57.8063 46.89 52.331 51.5977 41.3804H52.9793L52.442 58.4971H51.5977C51.2907 57.9343 51.0093 57.5505 50.7534 57.3458C50.4975 57.0899 50.1138 56.962 49.602 56.962C49.1415 56.962 47.2994 57.3714 44.0756 58.1901C40.8518 58.9577 37.5769 59.3415 34.2507 59.3415C25.9099 59.3415 19.4367 57.0899 14.8313 52.5869C10.2771 48.0838 8 41.3293 8 32.3232C8 23.2659 10.3795 16.281 15.1384 11.3686C19.9484 6.45621 26.396 4 34.481 4C37.6024 4 40.6471 4.40937 43.615 5.2281C46.6341 5.99567 48.3995 6.37945 48.9112 6.37945C49.423 6.37945 49.8067 6.27711 50.0626 6.07243C50.3184 5.81657 50.5999 5.4072 50.9069 4.84432H51.7512L52.3653 21.5005H50.9837C48.681 16.3322 46.3015 12.392 43.8453 9.67998C41.4403 6.91675 38.677 5.53513 35.5556 5.53513Z" fill="white"/>
<path d="M47.5404 40.2704H70.1069C77.8337 40.2704 83.5904 41.3962 87.3771 43.6477C91.1637 45.8481 93.0571 49.8138 93.0571 55.545C93.0571 61.8902 90.7544 66.2653 86.149 68.6703C81.8506 70.8707 75.838 71.9709 68.1112 71.9709H67.4971V92.5416H77.0917V94H47.5404V92.5416H52.5296V41.7288H47.5404V40.2704ZM67.4971 41.7288V70.5125H69.109C72.1793 70.5125 74.3029 69.4635 75.4798 67.3655C76.6567 65.2675 77.2452 61.8646 77.2452 57.1569V53.4725C77.2452 49.123 76.6823 46.0783 75.5566 44.3385C74.482 42.5987 72.4863 41.7288 69.5696 41.7288H67.4971Z" fill="white"/>
</svg>
