<svg width="51" height="50" viewBox="0 0 51 50" fill="none" xmlns="http://www.w3.org/2000/svg">
<path d="M38.0646 34.6188L46.9875 43.5396L44.0396 46.4875L35.1188 37.5646C31.7995 40.2255 27.6709 41.6727 23.4167 41.6667C13.0667 41.6667 4.66669 33.2667 4.66669 22.9167C4.66669 12.5667 13.0667 4.16667 23.4167 4.16667C33.7667 4.16667 42.1667 12.5667 42.1667 22.9167C42.1727 27.1708 40.7255 31.2995 38.0646 34.6188ZM33.8854 33.0729C36.5294 30.3539 38.006 26.7092 38 22.9167C38 14.8583 31.4729 8.33334 23.4167 8.33334C15.3584 8.33334 8.83335 14.8583 8.83335 22.9167C8.83335 30.9729 15.3584 37.5 23.4167 37.5C27.2092 37.506 30.8539 36.0294 33.5729 33.3854L33.8854 33.0729Z" fill="white"/>
</svg>
